<?xml version="1.0" ?>
<svg enable-background="new 0 0 32 32" height="32px" id="svg2" version="1.1" viewBox="0 0 32 32" width="32px" xml:space="preserve" xmlns="http://www.w3.org/2000/svg"      ><g id="background"><rect fill="none" height="32" width="32"/></g><g id="group_x5F_half"><g><path d="M20,16c-0.75,0-8,0-8,0s-2,0-2,2c0,0.778,0,12,0,12h12V18C22,18,22,16,20,16z"/></g><g><circle cx="16" cy="11" r="3"/></g><g><circle cx="8" cy="5" r="3"/></g><g><path d="M12,14h0.023C11.39,13.162,11,12.131,11,11c0-0.343,0.035-0.677,0.101-1C8.968,10,4,10,4,10s-2,0-2,2c0,0.778,0,12,0,12h6    v-6C8,14,12,14,12,14z"/></g><g><path d="M30,12c0,0,0-2-2-2c-0.587,0-5.143,0-7.101,0C20.965,10.323,21,10.657,21,11c0,1.131-0.39,2.162-1.022,3H20c4,0,4,4,4,4v6    h6V12z"/></g><g><circle cx="24" cy="5" r="3"/></g></g></svg>