<?xml version="1.0" encoding="UTF-8" ?>
<!DOCTYPE svg PUBLIC "-//W3C//DTD SVG 1.1//EN" "http://www.w3.org/Graphics/SVG/1.1/DTD/svg11.dtd">
<svg width="220pt" height="111pt" viewBox="0 0 220 111" version="1.1" xmlns="http://www.w3.org/2000/svg">
<path fill="#ffffff" d=" M 0.00 0.00 L 220.00 0.00 L 220.00 111.00 L 0.00 111.00 L 0.00 0.00 Z" />
<path fill="#00baf2" d=" M 80.82 20.79 C 84.77 10.63 95.02 3.23 105.96 2.99 C 116.06 2.31 125.87 7.78 131.38 16.13 C 124.79 18.94 119.81 24.40 116.87 30.85 C 116.13 30.77 114.66 30.60 113.92 30.52 C 115.00 32.89 116.04 35.28 117.07 37.68 C 119.16 36.03 121.25 34.39 123.34 32.75 C 122.56 32.53 121.00 32.09 120.22 31.87 C 122.45 26.92 126.06 22.47 131.05 20.14 C 139.56 15.78 150.54 18.11 157.09 24.90 C 163.21 30.98 165.44 40.55 162.71 48.73 C 160.15 56.98 152.64 63.41 144.09 64.69 C 136.83 66.00 129.39 63.37 123.92 58.58 C 131.04 53.94 136.31 46.73 138.36 38.46 C 139.11 38.59 140.61 38.86 141.36 38.99 C 140.12 36.61 138.89 34.23 137.65 31.85 C 135.68 33.64 133.71 35.44 131.74 37.24 C 132.56 37.40 134.18 37.71 134.99 37.87 C 133.06 45.25 128.42 51.96 121.75 55.79 C 115.30 59.73 107.38 60.55 100.08 58.98 C 104.56 53.40 107.22 46.15 106.14 38.96 C 105.55 33.49 102.79 28.56 99.25 24.46 C 100.01 23.81 100.76 23.17 101.52 22.53 C 98.90 21.98 96.28 21.43 93.66 20.88 C 93.79 23.55 93.94 26.22 94.06 28.89 C 94.96 28.17 95.85 27.44 96.74 26.70 C 102.14 32.54 104.45 41.14 101.91 48.79 C 98.73 59.02 87.63 65.77 77.08 64.43 C 66.91 63.49 58.04 55.15 56.48 45.06 C 54.77 35.87 59.17 25.97 67.14 21.10 C 70.51 18.85 74.52 17.96 78.47 17.35 C 74.75 25.62 74.36 35.21 77.74 43.66 C 77.06 43.93 75.69 44.48 75.00 44.76 C 77.29 46.13 79.57 47.51 81.86 48.88 C 82.60 46.32 83.35 43.76 84.09 41.19 C 83.29 41.49 81.69 42.09 80.89 42.39 C 78.33 35.50 77.98 27.66 80.82 20.79 Z" />
<path fill="#00baf2" d=" M 2.25 88.84 C 4.68 89.00 7.11 89.07 9.55 89.15 C 8.98 89.42 7.85 89.95 7.28 90.21 C 7.39 94.71 6.97 99.23 7.53 103.70 C 9.62 105.57 13.02 104.45 14.23 101.99 C 13.89 103.15 13.55 104.31 13.21 105.47 C 9.83 105.49 6.44 105.50 3.06 105.59 C 3.41 105.27 4.09 104.63 4.43 104.31 C 4.38 99.61 4.82 94.87 4.27 90.19 C 3.77 89.86 2.75 89.18 2.25 88.84 Z" />
<path fill="#00baf2" d=" M 81.70 90.66 C 84.96 88.31 89.20 89.09 92.93 89.41 C 93.00 90.85 93.07 92.29 93.14 93.73 C 91.62 88.32 82.44 88.79 81.56 94.36 C 79.96 99.18 83.66 105.15 89.04 104.52 C 91.18 104.73 92.23 102.69 93.52 101.40 C 93.29 102.32 92.83 104.17 92.60 105.10 C 88.87 105.63 84.66 105.93 81.49 103.50 C 77.42 100.51 77.50 93.50 81.70 90.66 Z" />
<path fill="#00baf2" d=" M 168.45 90.48 C 171.71 88.33 175.79 89.12 179.44 89.41 C 179.52 90.85 179.62 92.28 179.72 93.72 C 178.16 88.50 169.30 88.69 168.14 94.07 C 166.46 98.73 169.69 104.74 174.99 104.54 C 177.44 104.91 178.89 102.80 180.19 101.13 C 179.81 102.46 179.43 103.80 179.05 105.13 C 175.46 105.59 171.47 105.92 168.34 103.75 C 163.84 100.85 163.90 93.29 168.45 90.48 Z" />
<path fill="#00baf2" d=" M 182.05 89.42 C 185.70 89.83 189.96 88.59 193.19 90.75 C 195.71 93.23 193.28 96.45 191.39 98.39 C 193.44 101.00 195.68 103.49 198.39 105.44 C 199.74 99.88 200.23 94.17 201.30 88.56 C 203.69 92.78 205.67 97.20 207.84 101.53 C 209.97 97.20 211.94 92.80 214.23 88.56 C 215.34 93.76 215.58 99.12 216.85 104.28 C 217.74 104.85 218.67 105.36 219.64 105.80 C 217.80 105.61 215.97 105.47 214.13 105.37 C 213.69 101.77 213.18 98.18 212.68 94.60 C 210.85 98.33 209.09 102.09 207.17 105.77 C 205.22 102.19 203.46 98.51 201.69 94.83 C 201.26 98.07 200.83 101.31 200.40 104.55 C 200.95 104.81 202.06 105.33 202.61 105.59 C 199.97 105.50 197.29 105.75 194.69 105.20 C 191.58 103.74 191.00 99.13 187.29 98.63 C 187.30 100.58 187.31 102.52 187.36 104.47 C 188.02 104.74 189.34 105.28 189.99 105.55 C 187.48 105.56 184.97 105.51 182.47 105.58 C 182.96 105.26 183.95 104.61 184.45 104.29 C 184.50 99.71 184.47 95.13 184.57 90.55 C 183.94 90.27 182.68 89.70 182.05 89.42 Z" />
<path fill="#00baf2" d=" M 26.15 93.12 C 29.34 90.82 33.47 91.57 37.10 91.99 C 37.11 92.89 37.13 94.69 37.14 95.59 C 35.48 92.18 30.53 91.41 27.73 93.80 C 25.18 96.64 26.05 101.83 29.39 103.70 C 30.96 104.60 32.85 104.34 34.57 104.55 C 34.34 102.31 35.20 99.37 32.56 98.30 C 34.62 98.47 36.70 98.48 38.77 98.37 C 36.63 99.84 37.43 102.63 37.19 104.85 C 33.56 105.61 29.40 106.09 26.16 103.86 C 22.58 101.46 22.64 95.54 26.15 93.12 Z" />
<path fill="#00baf2" d=" M 113.46 91.60 C 116.87 91.07 121.14 92.40 122.21 96.03 C 123.45 99.80 121.12 104.30 117.20 105.19 C 113.43 106.28 108.54 104.80 107.37 100.71 C 105.79 96.57 109.12 91.83 113.46 91.60 Z" />
<path fill="#ffffff" d=" M 187.33 98.17 C 187.27 95.44 187.27 92.71 187.46 89.99 C 189.87 90.56 192.13 92.29 191.48 95.07 C 191.65 97.57 189.27 98.05 187.33 98.17 Z" />
<path fill="#00baf2" d=" M 14.86 92.07 C 16.85 92.05 18.85 92.02 20.84 91.95 C 17.69 95.22 19.89 100.43 19.32 104.54 C 19.94 104.79 21.18 105.30 21.80 105.56 C 19.46 105.57 17.13 105.53 14.80 105.60 C 15.22 105.29 16.05 104.67 16.47 104.36 C 16.49 100.70 16.49 97.03 16.53 93.37 C 16.12 93.05 15.28 92.40 14.86 92.07 Z" />
<path fill="#00baf2" d=" M 39.72 91.90 C 41.79 92.00 43.87 92.00 45.94 92.02 C 45.64 92.42 45.04 93.22 44.75 93.62 C 44.76 94.59 44.78 96.53 44.79 97.49 C 47.10 97.49 49.40 97.50 51.70 97.50 C 51.72 96.07 51.73 94.64 51.75 93.21 C 51.21 92.93 50.14 92.39 49.61 92.12 C 51.77 92.07 53.94 92.05 56.10 92.02 C 55.69 92.38 54.88 93.08 54.48 93.44 C 54.51 97.11 54.51 100.79 54.51 104.47 C 55.16 104.74 56.44 105.29 57.09 105.56 C 54.74 105.50 52.40 105.53 50.06 105.66 C 52.53 104.08 51.50 100.90 51.79 98.48 C 49.44 98.47 47.09 98.47 44.74 98.47 C 44.78 100.53 44.84 102.58 44.90 104.64 C 45.54 104.87 46.81 105.33 47.44 105.56 C 44.97 105.53 42.50 105.51 40.02 105.53 C 40.50 105.28 41.45 104.79 41.93 104.54 C 41.93 100.73 42.26 96.90 41.81 93.11 C 41.29 92.81 40.25 92.20 39.72 91.90 Z" />
<path fill="#00baf2" d=" M 58.14 91.76 C 62.20 92.09 66.28 92.08 70.34 91.82 C 70.48 92.26 70.77 93.14 70.91 93.58 C 69.21 93.30 67.50 93.04 65.79 92.79 C 65.86 96.68 65.47 100.61 66.07 104.47 C 66.63 104.77 67.76 105.38 68.33 105.68 C 65.90 105.51 63.46 105.50 61.03 105.52 C 61.51 105.27 62.46 104.78 62.94 104.53 C 63.01 100.61 63.02 96.70 62.99 92.78 C 61.20 93.04 59.41 93.25 57.63 93.59 C 57.76 93.13 58.01 92.22 58.14 91.76 Z" />
<path fill="#00baf2" d=" M 95.71 92.01 C 97.91 92.04 100.11 92.09 102.32 92.14 C 101.81 92.43 100.79 93.00 100.28 93.28 C 100.29 96.50 100.14 99.73 100.36 102.95 C 100.22 105.03 103.04 104.25 104.29 104.72 C 104.74 104.27 105.64 103.36 106.09 102.90 C 105.97 103.54 105.74 104.83 105.62 105.47 C 102.43 105.49 99.24 105.51 96.05 105.57 C 96.41 105.28 97.12 104.71 97.47 104.42 C 97.49 100.72 97.49 97.02 97.52 93.32 C 97.07 92.99 96.16 92.34 95.71 92.01 Z" />
<path fill="#00baf2" d=" M 123.74 91.91 C 125.80 92.00 127.87 92.00 129.94 92.02 C 129.64 92.42 129.05 93.23 128.75 93.63 C 128.79 96.41 128.58 99.22 129.03 101.98 C 129.52 105.05 134.45 105.48 135.59 102.65 C 136.33 99.46 135.92 96.15 135.98 92.92 C 135.41 92.70 134.27 92.26 133.70 92.05 C 135.70 92.00 137.70 91.96 139.70 91.85 C 136.80 93.54 138.49 97.37 137.90 100.09 C 138.48 106.12 128.74 107.51 126.50 102.59 C 125.60 99.52 126.28 96.25 125.82 93.12 C 125.30 92.81 124.26 92.21 123.74 91.91 Z" />
<path fill="#00baf2" d=" M 140.88 91.91 C 144.98 92.26 149.28 91.39 153.23 92.76 C 157.95 94.70 157.87 102.18 153.41 104.37 C 149.58 106.25 145.13 105.28 141.03 105.54 C 141.50 105.29 142.45 104.79 142.93 104.54 C 142.94 100.67 143.23 96.79 142.83 92.93 C 142.35 92.68 141.37 92.17 140.88 91.91 Z" />
<path fill="#ffffff" d=" M 112.16 92.95 C 115.28 91.33 119.14 93.80 119.56 97.14 C 120.13 99.93 119.44 104.12 115.98 104.50 C 109.98 105.38 107.44 95.87 112.16 92.95 Z" />
<path fill="#ffffff" d=" M 145.81 92.74 C 147.62 93.04 149.57 92.99 151.24 93.86 C 154.35 95.53 154.80 100.11 152.89 102.83 C 151.16 104.94 148.21 104.40 145.83 104.31 C 145.76 100.45 145.75 96.60 145.81 92.74 Z" />
</svg>
