<?xml version="1.0" ?>
<svg enable-background="new 0 0 32 32" height="32px" id="svg2" version="1.1" viewBox="0 0 32 32" width="32px" xml:space="preserve" xmlns="http://www.w3.org/2000/svg"      ><g id="background"><rect fill="none" height="32" width="32"/></g><g id="group_x5F_full_x5F_remove"><path d="M22.381,7.52c0.064,0.034,0.133,0.067,0.193,0.105C23,7.856,23.48,8,24,8c1.658,0,3-1.343,3-3s-1.342-3-3-3   c-1.656,0-3,1.343-3,3C21,6.06,21.553,6.985,22.381,7.52z M8,20.001c0-2,0-10,0-10S8.005,9.551,8.238,9C6.159,9,4,9,4,9   s-2,0-2,2.001v7c0,2,2,2,2,2v10h6v-8C10,22.001,8,22.001,8,20.001z M16,8c1.657,0,3-1.343,3-3s-1.343-3-3-3s-3,1.343-3,3   S14.343,8,16,8z M8,8c0.52,0,1.001-0.144,1.427-0.376c0.059-0.036,0.125-0.068,0.188-0.103C10.446,6.988,11,6.062,11,5   c0-1.657-1.343-3-3-3S5,3.343,5,5S6.343,8,8,8z M30,17.351c0-2.261,0-6.35,0-6.35S30,9,28,9h-4.238   C23.996,9.551,24,10.001,24,10.001s0,1.888,0,4.059c-0.328-0.036-0.662-0.059-1-0.059s-0.67,0.022-1,0.059c0-1.632,0-3.059,0-3.059   S22,9,20,9c-0.5,0-8,0-8,0s-2,0-2,2.001v7c0,2,2,2,2,2v10h5.35C18.895,31.249,20.859,32,23,32c4.971,0,9-4.028,9-8.999   C32,20.859,31.248,18.896,30,17.351z M23,30c-3.865-0.008-6.994-3.135-7-6.999c0.006-3.865,3.135-6.994,7-7   c3.865,0.006,6.992,3.135,7,7C29.992,26.865,26.865,29.992,23,30z"/><g><rect height="2" width="10" x="18" y="22"/></g></g></svg>