<?xml version="1.0" ?>
<svg enable-background="new 0 0 32 32" height="32px" id="svg2" version="1.1" viewBox="0 0 32 32" width="32px" xml:space="preserve" xmlns="http://www.w3.org/2000/svg"      ><g id="background"><rect fill="none" height="32" width="32"/></g><g id="group_x5F_half_x5F_add"><path d="M16,14c1.657,0,3-1.343,3-3s-1.343-3-3-3s-3,1.343-3,3S14.343,14,16,14z M24,8c1.657,0,3-1.343,3-3s-1.343-3-3-3   s-3,1.343-3,3S22.343,8,24,8z M12.023,14C11.39,13.162,11,12.131,11,11c0-0.343,0.035-0.677,0.101-1C8.968,10,4,10,4,10s-2,0-2,2   c0,0.778,0,12,0,12h6v-6c0-4,4-4,4-4H12.023z M8,8c1.657,0,3-1.343,3-3S9.657,2,8,2S5,3.343,5,5S6.343,8,8,8z M30,17.349V12   c0,0,0-2-2-2h-7.101C20.965,10.323,21,10.657,21,11c0,1.131-0.39,2.162-1.022,3H20c0.477,0,0.878,0.073,1.246,0.173   c-1.457,0.288-2.787,0.928-3.898,1.827C15.008,16,12,16,12,16s-2,0-2,2c0,0.778,0,12,0,12h7.349c1.545,1.248,3.51,1.999,5.651,2   c4.971-0.002,8.998-4.029,9-9C31.999,20.858,31.248,18.894,30,17.349z M23,29.883c-3.801-0.009-6.876-3.084-6.885-6.883   c0.009-3.801,3.084-6.876,6.885-6.885c3.799,0.009,6.874,3.084,6.883,6.885C29.874,26.799,26.799,29.874,23,29.883z"/><g><polygon points="28,22 24.002,22 24.002,18 22,18 22,22 18,22 18,24 22,24 22,28 24.002,28 24.002,24 28,24   "/></g></g></svg>